<mxfile host="app.diagrams.net" agent="Mozilla/5.0 (Windows NT 10.0; Win64; x64) AppleWebKit/537.36 (KHTML, like Gecko) Chrome/131.0.0.0 Safari/537.36" version="25.0.3">
  <diagram name="Side-1" id="S92WZ12-5MStktpTjxX3">
    <mxGraphModel grid="1" page="1" gridSize="10" guides="1" tooltips="1" connect="1" arrows="1" fold="1" pageScale="1" pageWidth="827" pageHeight="1169" math="0" shadow="0">
      <root>
        <mxCell id="0" />
        <mxCell id="1" parent="0" />
        <mxCell id="uEZpmLtoakCsgJdl9yUj-1" value="Raspberry pi&amp;nbsp;&lt;br&gt;&lt;div&gt;&lt;span style=&quot;font-weight: normal;&quot;&gt;&lt;i&gt;&amp;lt;&amp;lt;Controller&amp;gt;&amp;gt;&lt;/i&gt;&lt;/span&gt;&lt;/div&gt;" style="swimlane;fontStyle=1;align=center;verticalAlign=top;childLayout=stackLayout;horizontal=1;startSize=40;horizontalStack=0;resizeParent=1;resizeParentMax=0;resizeLast=0;collapsible=1;marginBottom=0;whiteSpace=wrap;html=1;" vertex="1" parent="1">
          <mxGeometry x="374" y="358" width="160" height="128" as="geometry" />
        </mxCell>
        <mxCell id="uEZpmLtoakCsgJdl9yUj-2" value="&amp;nbsp;" style="text;strokeColor=none;fillColor=none;align=left;verticalAlign=top;spacingLeft=4;spacingRight=4;overflow=hidden;rotatable=0;points=[[0,0.5],[1,0.5]];portConstraint=eastwest;whiteSpace=wrap;html=1;" vertex="1" parent="uEZpmLtoakCsgJdl9yUj-1">
          <mxGeometry y="40" width="160" height="40" as="geometry" />
        </mxCell>
        <mxCell id="uEZpmLtoakCsgJdl9yUj-3" value="" style="line;strokeWidth=1;fillColor=none;align=left;verticalAlign=middle;spacingTop=-1;spacingLeft=3;spacingRight=3;rotatable=0;labelPosition=right;points=[];portConstraint=eastwest;strokeColor=inherit;" vertex="1" parent="uEZpmLtoakCsgJdl9yUj-1">
          <mxGeometry y="80" width="160" height="8" as="geometry" />
        </mxCell>
        <mxCell id="uEZpmLtoakCsgJdl9yUj-4" value="&amp;nbsp;" style="text;strokeColor=none;fillColor=none;align=left;verticalAlign=top;spacingLeft=4;spacingRight=4;overflow=hidden;rotatable=0;points=[[0,0.5],[1,0.5]];portConstraint=eastwest;whiteSpace=wrap;html=1;" vertex="1" parent="uEZpmLtoakCsgJdl9yUj-1">
          <mxGeometry y="88" width="160" height="40" as="geometry" />
        </mxCell>
        <mxCell id="uEZpmLtoakCsgJdl9yUj-5" value="PIDcontroller&lt;br&gt;&lt;div&gt;&lt;span style=&quot;font-weight: normal;&quot;&gt;&lt;i&gt;&amp;lt;&amp;lt;&lt;/i&gt;&lt;/span&gt;&lt;i style=&quot;background-color: initial; font-weight: 400;&quot;&gt;Boundary&lt;/i&gt;&lt;i style=&quot;font-weight: normal; background-color: initial;&quot;&gt;&amp;gt;&amp;gt;&lt;/i&gt;&lt;/div&gt;" style="swimlane;fontStyle=1;align=center;verticalAlign=top;childLayout=stackLayout;horizontal=1;startSize=40;horizontalStack=0;resizeParent=1;resizeParentMax=0;resizeLast=0;collapsible=1;marginBottom=0;whiteSpace=wrap;html=1;" vertex="1" parent="1">
          <mxGeometry x="590" y="348" width="220" height="196" as="geometry" />
        </mxCell>
        <mxCell id="uEZpmLtoakCsgJdl9yUj-6" value="+&amp;nbsp;&lt;code&gt;&lt;span class=&quot;hljs-title&quot;&gt;compute&lt;/span&gt;&lt;span class=&quot;hljs-params&quot;&gt;&lt;span class=&quot;hljs-params&quot;&gt;(&lt;/span&gt;&lt;span class=&quot;hljs-type&quot;&gt;float&lt;/span&gt;&lt;span class=&quot;hljs-params&quot;&gt; setpoint, &lt;/span&gt;&lt;span class=&quot;hljs-type&quot;&gt;float&lt;/span&gt;&lt;span class=&quot;hljs-params&quot;&gt; measuredValue)&lt;/span&gt;&lt;/span&gt;&lt;/code&gt;&lt;div&gt;&lt;code&gt;&lt;span class=&quot;hljs-params&quot;&gt;&lt;span class=&quot;hljs-params&quot;&gt;+&amp;nbsp;&lt;/span&gt;&lt;/span&gt;&lt;/code&gt;&lt;span style=&quot;background-color: initial;&quot; class=&quot;hljs-title&quot;&gt;reset&lt;/span&gt;&lt;span style=&quot;background-color: initial;&quot; class=&quot;hljs-params&quot;&gt;()&lt;/span&gt;&lt;/div&gt;" style="text;strokeColor=none;fillColor=none;align=left;verticalAlign=top;spacingLeft=4;spacingRight=4;overflow=hidden;rotatable=0;points=[[0,0.5],[1,0.5]];portConstraint=eastwest;whiteSpace=wrap;html=1;" vertex="1" parent="uEZpmLtoakCsgJdl9yUj-5">
          <mxGeometry y="40" width="220" height="60" as="geometry" />
        </mxCell>
        <mxCell id="uEZpmLtoakCsgJdl9yUj-7" value="" style="line;strokeWidth=1;fillColor=none;align=left;verticalAlign=middle;spacingTop=-1;spacingLeft=3;spacingRight=3;rotatable=0;labelPosition=right;points=[];portConstraint=eastwest;strokeColor=inherit;" vertex="1" parent="uEZpmLtoakCsgJdl9yUj-5">
          <mxGeometry y="100" width="220" height="8" as="geometry" />
        </mxCell>
        <mxCell id="uEZpmLtoakCsgJdl9yUj-8" value="- kp: float&lt;br/&gt;- ki: float&lt;br/&gt;- kd: float&lt;br/&gt;- integral: float&lt;br/&gt;- previousError: float" style="text;strokeColor=none;fillColor=none;align=left;verticalAlign=top;spacingLeft=4;spacingRight=4;overflow=hidden;rotatable=0;points=[[0,0.5],[1,0.5]];portConstraint=eastwest;whiteSpace=wrap;html=1;" vertex="1" parent="uEZpmLtoakCsgJdl9yUj-5">
          <mxGeometry y="108" width="220" height="88" as="geometry" />
        </mxCell>
        <mxCell id="uEZpmLtoakCsgJdl9yUj-13" value="Motorcontroller&lt;br&gt;&lt;div&gt;&lt;span style=&quot;font-weight: normal;&quot;&gt;&lt;i&gt;&amp;lt;&amp;lt;&lt;/i&gt;&lt;/span&gt;&lt;i style=&quot;background-color: initial; font-weight: 400;&quot;&gt;Boundary&lt;/i&gt;&lt;i style=&quot;font-weight: normal; background-color: initial;&quot;&gt;&amp;gt;&amp;gt;&lt;/i&gt;&lt;/div&gt;" style="swimlane;fontStyle=1;align=center;verticalAlign=top;childLayout=stackLayout;horizontal=1;startSize=40;horizontalStack=0;resizeParent=1;resizeParentMax=0;resizeLast=0;collapsible=1;marginBottom=0;whiteSpace=wrap;html=1;" vertex="1" parent="1">
          <mxGeometry x="325" y="139" width="262" height="166" as="geometry" />
        </mxCell>
        <mxCell id="uEZpmLtoakCsgJdl9yUj-14" value="&lt;code&gt;&lt;span class=&quot;hljs-title&quot;&gt;+ moveServo&lt;/span&gt;&lt;span class=&quot;hljs-params&quot;&gt;&lt;span class=&quot;hljs-params&quot;&gt;(&lt;/span&gt;&lt;span class=&quot;hljs-type&quot;&gt;int&lt;/span&gt;&lt;span class=&quot;hljs-params&quot;&gt; angle)&lt;/span&gt;&lt;/span&gt;&lt;/code&gt;&lt;div&gt;&lt;code&gt;&lt;span class=&quot;hljs-params&quot;&gt;&lt;span class=&quot;hljs-params&quot;&gt;+&amp;nbsp;&lt;/span&gt;&lt;/span&gt;&lt;/code&gt;&lt;span style=&quot;background-color: initial;&quot; class=&quot;hljs-title&quot;&gt;rotateStepper&lt;/span&gt;&lt;span style=&quot;background-color: initial;&quot; class=&quot;hljs-params&quot;&gt;&lt;span class=&quot;hljs-params&quot;&gt;(&lt;/span&gt;&lt;span class=&quot;hljs-type&quot;&gt;int&lt;/span&gt;&lt;span class=&quot;hljs-params&quot;&gt; steps, &lt;/span&gt;&lt;span class=&quot;hljs-type&quot;&gt;bool&lt;/span&gt;&lt;span class=&quot;hljs-params&quot;&gt; clockwise)&lt;/span&gt;&lt;/span&gt;&lt;/div&gt;&lt;div&gt;&lt;span style=&quot;background-color: initial;&quot; class=&quot;hljs-params&quot;&gt;&lt;span class=&quot;hljs-params&quot;&gt;+&amp;nbsp;&lt;/span&gt;&lt;/span&gt;&lt;span style=&quot;background-color: initial;&quot; class=&quot;hljs-title&quot;&gt;resetStepper&lt;/span&gt;&lt;span style=&quot;background-color: initial;&quot; class=&quot;hljs-params&quot;&gt;()&lt;/span&gt;&lt;/div&gt;" style="text;strokeColor=none;fillColor=none;align=left;verticalAlign=top;spacingLeft=4;spacingRight=4;overflow=hidden;rotatable=0;points=[[0,0.5],[1,0.5]];portConstraint=eastwest;whiteSpace=wrap;html=1;" vertex="1" parent="uEZpmLtoakCsgJdl9yUj-13">
          <mxGeometry y="40" width="262" height="60" as="geometry" />
        </mxCell>
        <mxCell id="uEZpmLtoakCsgJdl9yUj-15" value="" style="line;strokeWidth=1;fillColor=none;align=left;verticalAlign=middle;spacingTop=-1;spacingLeft=3;spacingRight=3;rotatable=0;labelPosition=right;points=[];portConstraint=eastwest;strokeColor=inherit;" vertex="1" parent="uEZpmLtoakCsgJdl9yUj-13">
          <mxGeometry y="100" width="262" height="8" as="geometry" />
        </mxCell>
        <mxCell id="uEZpmLtoakCsgJdl9yUj-16" value="- servoPin: int&lt;br/&gt;- stepperPins[4]: int&lt;br/&gt;- stepSequence[4][4]: int" style="text;strokeColor=none;fillColor=none;align=left;verticalAlign=top;spacingLeft=4;spacingRight=4;overflow=hidden;rotatable=0;points=[[0,0.5],[1,0.5]];portConstraint=eastwest;whiteSpace=wrap;html=1;" vertex="1" parent="uEZpmLtoakCsgJdl9yUj-13">
          <mxGeometry y="108" width="262" height="58" as="geometry" />
        </mxCell>
        <mxCell id="uEZpmLtoakCsgJdl9yUj-17" value="" style="endArrow=open;html=1;rounded=0;exitX=1;exitY=0.5;exitDx=0;exitDy=0;entryX=0;entryY=0.5;entryDx=0;entryDy=0;endFill=0;" edge="1" parent="1" source="uEZpmLtoakCsgJdl9yUj-25" target="uEZpmLtoakCsgJdl9yUj-2">
          <mxGeometry width="50" height="50" relative="1" as="geometry">
            <mxPoint x="410" y="400" as="sourcePoint" />
            <mxPoint x="460" y="350" as="targetPoint" />
          </mxGeometry>
        </mxCell>
        <mxCell id="uEZpmLtoakCsgJdl9yUj-19" value="" style="endArrow=open;startArrow=open;html=1;rounded=0;entryX=0;entryY=0.5;entryDx=0;entryDy=0;exitX=1;exitY=0.5;exitDx=0;exitDy=0;endFill=0;startFill=0;" edge="1" parent="1" source="uEZpmLtoakCsgJdl9yUj-2" target="uEZpmLtoakCsgJdl9yUj-6">
          <mxGeometry width="50" height="50" relative="1" as="geometry">
            <mxPoint x="410" y="400" as="sourcePoint" />
            <mxPoint x="460" y="350" as="targetPoint" />
          </mxGeometry>
        </mxCell>
        <mxCell id="uEZpmLtoakCsgJdl9yUj-20" value="" style="endArrow=open;html=1;rounded=0;exitX=0.5;exitY=0;exitDx=0;exitDy=0;endFill=0;" edge="1" parent="1" source="uEZpmLtoakCsgJdl9yUj-1" target="uEZpmLtoakCsgJdl9yUj-16">
          <mxGeometry width="50" height="50" relative="1" as="geometry">
            <mxPoint x="410" y="400" as="sourcePoint" />
            <mxPoint x="460" y="350" as="targetPoint" />
          </mxGeometry>
        </mxCell>
        <mxCell id="uEZpmLtoakCsgJdl9yUj-21" value="cd(uc1)" style="shape=umlFrame;whiteSpace=wrap;html=1;pointerEvents=0;" vertex="1" parent="1">
          <mxGeometry x="20" y="130" width="800" height="450" as="geometry" />
        </mxCell>
        <mxCell id="uEZpmLtoakCsgJdl9yUj-24" value="Light&lt;br&gt;&lt;div&gt;&lt;span style=&quot;font-weight: normal;&quot;&gt;&lt;i&gt;&amp;lt;&amp;lt;Boundary&amp;gt;&amp;gt;&lt;/i&gt;&lt;/span&gt;&lt;/div&gt;" style="swimlane;fontStyle=1;align=center;verticalAlign=top;childLayout=stackLayout;horizontal=1;startSize=40;horizontalStack=0;resizeParent=1;resizeParentMax=0;resizeLast=0;collapsible=1;marginBottom=0;whiteSpace=wrap;html=1;" vertex="1" parent="1">
          <mxGeometry x="45" y="341" width="231" height="203" as="geometry" />
        </mxCell>
        <mxCell id="uEZpmLtoakCsgJdl9yUj-25" value="+&amp;nbsp;&lt;code&gt;&lt;span class=&quot;hljs-function&quot;&gt;&lt;span class=&quot;hljs-title&quot;&gt;parseSensorData&lt;/span&gt;&lt;span class=&quot;hljs-params&quot;&gt;&lt;span class=&quot;hljs-params&quot;&gt;(&lt;/span&gt;&lt;span class=&quot;hljs-type&quot;&gt;const&lt;/span&gt;&lt;span class=&quot;hljs-params&quot;&gt;&amp;nbsp;std::string&amp;amp; line)&lt;/span&gt;&lt;/span&gt;&lt;/span&gt;&lt;/code&gt;&lt;div&gt;&lt;code&gt;+&amp;nbsp;&lt;/code&gt;&lt;span style=&quot;background-color: initial;&quot; class=&quot;hljs-function&quot;&gt;&lt;span class=&quot;hljs-title&quot;&gt;determineSunDirection&lt;/span&gt;&lt;span class=&quot;hljs-params&quot;&gt;()&lt;/span&gt;&lt;/span&gt;&lt;/div&gt;" style="text;strokeColor=none;fillColor=none;align=left;verticalAlign=top;spacingLeft=4;spacingRight=4;overflow=hidden;rotatable=0;points=[[0,0.5],[1,0.5]];portConstraint=eastwest;whiteSpace=wrap;html=1;" vertex="1" parent="uEZpmLtoakCsgJdl9yUj-24">
          <mxGeometry y="40" width="231" height="76" as="geometry" />
        </mxCell>
        <mxCell id="uEZpmLtoakCsgJdl9yUj-26" value="" style="line;strokeWidth=1;fillColor=none;align=left;verticalAlign=middle;spacingTop=-1;spacingLeft=3;spacingRight=3;rotatable=0;labelPosition=right;points=[];portConstraint=eastwest;strokeColor=inherit;" vertex="1" parent="uEZpmLtoakCsgJdl9yUj-24">
          <mxGeometry y="116" width="231" height="8" as="geometry" />
        </mxCell>
        <mxCell id="uEZpmLtoakCsgJdl9yUj-27" value="- intensityLeft: int&lt;br/&gt;- intensityRight: int&lt;br/&gt;- intensityUp: int&lt;br/&gt;- intensityDown: int" style="text;strokeColor=none;fillColor=none;align=left;verticalAlign=top;spacingLeft=4;spacingRight=4;overflow=hidden;rotatable=0;points=[[0,0.5],[1,0.5]];portConstraint=eastwest;whiteSpace=wrap;html=1;" vertex="1" parent="uEZpmLtoakCsgJdl9yUj-24">
          <mxGeometry y="124" width="231" height="79" as="geometry" />
        </mxCell>
      </root>
    </mxGraphModel>
  </diagram>
</mxfile>
